<?xml version="1.0" standalone="no"?><!DOCTYPE svg PUBLIC "-//W3C//DTD SVG 1.1//EN" "http://www.w3.org/Graphics/SVG/1.1/DTD/svg11.dtd"><svg class="icon" width="200px" height="200.00px" viewBox="0 0 1024 1024" version="1.1" xmlns="http://www.w3.org/2000/svg"><path fill="#000000" d="M336.0768 668.8512 336.0768 359.7312c0-11.008 1.4336-20.2752 4.2496-27.776 2.8416-7.5008 6.4-13.184 10.6752-17.024 4.2496-3.84 10.5472-7.04 18.9184-9.6256 8.3456-2.5856 17.6128-3.8656 27.8272-3.8656l242.6624 0c24.3968 0 40.96 4.3008 49.6384 12.8768 8.6784 8.6016 13.0304 23.7312 13.0304 45.4144l0 307.8656c0 11.6736-1.4336 21.888-4.2496 30.6688-2.8416 8.7552-7.8848 16.768-15.0528 24.0128-7.1936 7.2704-21.6576 10.88-43.3664 10.88l-242.6624 0c-10.7008 0-20.5312-1.4336-29.4656-4.2496-8.9344-2.8416-16.5376-7.4752-22.8096-13.9008S336.0768 693.2224 336.0768 668.8512zM660.8128 484.4288l0-122.88c0-9.6-0.8448-15.5392-2.5088-17.7664-1.6896-2.2272-4.1216-3.7632-7.296-4.608-3.1744-0.8448-8.0128-1.2544-14.5408-1.2544l-239.5392 0c-10.7008 0-17.4592 1.6896-20.1984 5.0944-2.7648 3.4048-4.1472 9.5744-4.1472 18.5344l0 122.88L660.8128 484.4288zM660.8128 523.1872l-288.256 0 0 141.8496c0 14.1312 3.7632 22.5536 11.2896 25.2928s17.2544 4.1216 29.1328 4.1216l221.44 0c10.5472 0 17.5872-1.5104 21.0944-4.48s5.2736-10.2912 5.2736-21.9392L660.7872 523.1872zM759.3216 960.256c-8.5248 0-16.3328-5.7344-18.5856-14.3872-10.8032-41.728-94.4896-45.824-122.9824-43.9296L122.3168 901.9648c-38.8352 0-70.4-31.5648-70.4-70.4L51.9168 175.744c0-38.8096 31.5648-70.4 70.4-70.4l779.3408 0c38.8352 0 70.4 31.5904 70.4 70.4l0 655.8208c0 38.8352-31.5648 70.4-70.4 70.4l-75.008 0c-10.5984 0-19.2-8.6016-19.2-19.2s8.6016-19.2 19.2-19.2l75.008 0c17.6384 0 32-14.3616 32-32L933.6576 175.744c0-17.6384-14.3616-32-32-32L122.3168 143.744c-17.6384 0-32 14.3616-32 32l0 655.8208c0 17.6384 14.3616 32 32 32l494.208 0c4.5568-0.3072 140.4672-8.2944 161.4336 72.6784 2.6624 10.2656-3.5328 20.7616-13.7984 23.3984C762.5472 960.0512 760.9344 960.256 759.3216 960.256zM306.6112 185.344c-10.5984 0-19.2-8.6016-19.2-19.2L287.4112 82.944c0-10.5984 8.6016-19.2 19.2-19.2s19.2 8.6016 19.2 19.2l0 83.2C325.8112 176.7424 317.2096 185.344 306.6112 185.344zM738.0736 185.344c-10.5984 0-19.2-8.6016-19.2-19.2L718.8736 82.944c0-10.5984 8.6016-19.2 19.2-19.2s19.2 8.6016 19.2 19.2l0 83.2C757.2736 176.7424 748.672 185.344 738.0736 185.344z" /></svg>