<?xml version="1.0" standalone="no"?><!DOCTYPE svg PUBLIC "-//W3C//DTD SVG 1.1//EN" "http://www.w3.org/Graphics/SVG/1.1/DTD/svg11.dtd"><svg class="icon" width="200px" height="200.00px" viewBox="0 0 1024 1024" version="1.1" xmlns="http://www.w3.org/2000/svg"><path fill="#000000" d="M672.390737 705.751579c-3.018105 2.856421-7.922526 4.527158-14.605474 5.066105-7.518316 0.646737-18.674526 0.161684-33.360842-1.536a499.334737 499.334737 0 0 1-31.070316-4.284631 76.261053 76.261053 0 0 0-12.341894-1.724632c-4.715789 0.161684-9.000421 1.697684-12.853895 4.527158s-5.739789 7.114105-5.658948 12.69221c0.053895 5.658947 1.805474 10.132211 5.281685 13.365895 3.449263 3.233684 8.865684 5.874526 16.222315 7.949474 7.410526 1.994105 19.078737 3.745684 35.004632 5.12 15.952842 1.401263 27.944421 2.074947 35.947789 1.832421 26.543158-0.269474 42.819368-4.419368 48.693895-12.288 5.928421-7.895579 9.539368-14.821053 11.048421-20.749474a85.423158 85.423158 0 0 0 2.506106-17.785263V343.848421c0-8.084211-1.239579-15.764211-3.664843-23.174737-2.479158-7.356632-7.383579-14.416842-14.767157-21.045895-7.383579-6.602105-21.342316-9.943579-41.687579-9.943578h-250.853053c-14.982737 0-26.219789 3.826526-33.603368 11.452631-7.383579 7.653053-12.422737 15.063579-15.036632 22.177684-2.613895 7.114105-3.907368 16.249263-3.907368 27.324632v149.90821c0 32.579368-1.077895 57.667368-3.260632 75.237053a278.231579 278.231579 0 0 1-11.102316 50.580211c-5.200842 16.168421-16.922947 37.079579-35.247158 62.787368l-16.626526 22.932211c-4.338526 6.063158-6.979368 10.536421-7.814737 13.500631-0.808421 2.883368-1.266526 5.335579-1.266526 7.356632 0 5.712842 1.670737 10.186105 5.039158 13.365894 3.341474 3.179789 8.165053 4.877474 14.497684 5.039158 6.305684 0.161684 14.848-5.928421 25.680842-18.297263 10.805895-12.341895 21.342316-27.540211 31.582316-45.594947 10.266947-18.189474 17.434947-34.007579 21.504-47.616 4.096-13.635368 6.898526-24.710737 8.299789-33.522527 1.428211-8.730947 2.910316-18.539789 4.419369-29.426526h287.420631v116.277895c0.107789 5.578105-1.401263 9.754947-4.419368 12.584421zM393.997474 350.154105c0-5.982316 1.509053-11.425684 4.50021-16.357052 3.018105-4.877474 10.213053-7.329684 21.584842-7.329685h228.486737c10.347789 0 17.138526 1.778526 20.318316 5.362527s5.308632 7.868632 6.413474 12.880842c1.077895 4.958316 1.589895 10.132211 1.589894 15.440842v52.924632H393.997474v-62.922106z m0 190.005895v-90.354526h282.947368v90.354526h-282.947368z m-217.034106 353.765053h477.615158c0.161684 0 16.303158-0.404211 36.486737 3.853473 33.064421 7.060211 51.334737 20.965053 60.820211 31.312842a17.973895 17.973895 0 0 0 25.519158 1.185685 18.108632 18.108632 0 0 0 1.185684-25.492211c-43.735579-47.858526-118.487579-47.130947-124.793263-47.023158H176.963368a75.587368 75.587368 0 0 1-75.452631-75.479579V205.635368a75.533474 75.533474 0 0 1 75.452631-75.479579h114.041264v26.273685a18.054737 18.054737 0 0 0 36.109473 0v-26.273685h395.344842v26.273685a18.027789 18.027789 0 1 0 36.055579 0v-26.273685h113.987369a75.533474 75.533474 0 0 1 75.479579 75.479579v576.673685a75.533474 75.533474 0 0 1-75.479579 75.479579h-37.618527a18.054737 18.054737 0 0 0 0 36.136421h37.618527a111.750737 111.750737 0 0 0 111.616-111.616v-576.673685a111.750737 111.750737 0 0 0-111.616-111.616h-113.987369v-20.587789a18.054737 18.054737 0 0 0-36.055579 0v20.587789H327.114105v-20.587789a18.054737 18.054737 0 0 0-36.109473 0v20.587789h-114.041264a111.723789 111.723789 0 0 0-111.562105 111.616v576.673685a111.750737 111.750737 0 0 0 111.562105 111.616z"  /></svg>